<?xml version="1.0" standalone="no"?>
<!DOCTYPE svg PUBLIC "-//W3C//DTD SVG 20010904//EN"
 "http://www.w3.org/TR/2001/REC-SVG-20010904/DTD/svg10.dtd">
<svg version="1.0" xmlns="http://www.w3.org/2000/svg"
 width="1877.000000pt" height="1877.000000pt" viewBox="0 0 1877.000000 1877.000000"
 preserveAspectRatio="xMidYMid meet">
<metadata>
Created by potrace 1.14, written by Peter Selinger 2001-2017
</metadata>
<g transform="translate(0.000000,1877.000000) scale(0.100000,-0.100000)"
fill="#000000" stroke="none">
<path d="M9137 18754 c-1 -1 -72 -5 -157 -9 -85 -4 -175 -8 -200 -10 -127 -8
-228 -16 -250 -20 -14 -2 -61 -7 -105 -11 -90 -7 -110 -9 -180 -18 -27 -4 -68
-9 -90 -12 -22 -3 -47 -7 -55 -9 -8 -2 -40 -6 -71 -10 -31 -3 -66 -7 -77 -10
-11 -2 -37 -6 -58 -9 -95 -15 -231 -40 -389 -71 -16 -4 -39 -8 -50 -10 -11 -2
-49 -10 -85 -19 -36 -8 -77 -17 -92 -20 -37 -6 -450 -114 -523 -136 -201 -61
-364 -113 -390 -125 -16 -7 -55 -20 -85 -30 -30 -10 -118 -42 -195 -71 -967
-365 -1815 -855 -2635 -1522 -344 -279 -718 -636 -1025 -977 -49 -55 -95 -106
-102 -113 -6 -7 -29 -34 -50 -60 -21 -26 -46 -56 -56 -67 -16 -17 -181 -222
-282 -350 -140 -177 -565 -803 -565 -832 0 -4 -6 -14 -14 -22 -30 -34 -186
-316 -333 -599 -226 -436 -486 -1090 -622 -1567 -18 -60 -36 -121 -41 -135 -5
-14 -12 -36 -14 -50 -3 -14 -17 -68 -31 -120 -14 -52 -27 -108 -30 -125 -3
-16 -10 -43 -15 -60 -8 -27 -44 -181 -56 -245 -15 -75 -45 -228 -50 -250 -8
-41 -72 -470 -79 -530 -3 -30 -8 -66 -10 -80 -2 -14 -7 -56 -10 -95 -3 -38 -8
-86 -10 -105 -4 -39 -16 -181 -20 -250 -23 -336 -23 -986 0 -1240 1 -19 6 -73
10 -120 15 -183 24 -283 30 -330 3 -19 7 -53 10 -75 3 -22 7 -60 10 -85 3 -25
7 -56 10 -70 2 -14 7 -45 10 -70 3 -25 13 -85 21 -135 8 -49 17 -103 20 -120
4 -24 14 -80 19 -105 1 -3 5 -25 9 -50 10 -53 10 -52 31 -155 9 -44 25 -116
36 -160 10 -44 21 -89 23 -100 32 -167 176 -646 302 -1005 187 -536 529 -1236
855 -1756 61 -97 273 -417 290 -438 5 -6 55 -74 110 -150 56 -77 135 -182 177
-235 90 -113 254 -314 262 -321 4 -3 44 -48 89 -100 203 -232 508 -541 740
-749 41 -36 83 -75 95 -86 12 -11 64 -56 116 -100 52 -44 97 -82 100 -85 7 -8
180 -145 285 -226 291 -225 763 -539 1050 -699 22 -12 67 -37 100 -56 502
-278 1044 -516 1599 -700 150 -49 415 -130 476 -145 8 -2 87 -22 175 -44 138
-35 414 -97 510 -115 17 -3 79 -14 138 -25 60 -11 130 -22 155 -26 26 -3 49
-8 52 -9 3 -2 37 -6 75 -10 39 -4 72 -9 75 -10 3 -2 30 -6 60 -9 50 -6 87 -11
160 -21 28 -4 145 -16 205 -20 126 -10 203 -16 230 -20 175 -22 968 -23 1245
0 19 1 82 6 140 10 58 4 112 9 121 10 8 2 53 6 100 10 46 3 91 8 99 10 8 2 44
7 80 10 36 4 73 9 84 11 10 2 44 6 75 9 31 4 63 8 71 10 8 3 47 9 85 15 39 5
84 12 100 15 17 3 40 8 53 10 12 2 50 9 85 15 34 6 125 24 202 40 181 37 182
37 235 51 25 6 54 12 65 15 97 19 663 181 765 219 19 8 96 34 170 60 74 25
154 55 177 66 24 10 47 19 52 19 9 0 227 88 298 121 24 10 45 19 47 19 25 0
561 262 771 376 508 277 1097 676 1476 998 20 17 47 40 60 50 47 37 169 145
298 261 44 40 262 248 315 301 105 106 326 341 411 439 100 116 98 113 165
195 34 41 72 86 84 100 11 14 34 43 50 65 17 22 33 42 36 45 4 3 47 59 97 125
481 640 845 1268 1158 2000 138 325 292 760 379 1075 15 52 31 109 36 125 24
79 105 419 134 567 2 13 14 70 26 128 11 58 23 121 26 140 3 19 12 78 20 130
19 126 21 137 29 190 12 79 14 94 20 150 3 30 8 66 10 80 2 14 7 58 10 99 4
41 8 82 10 90 1 9 6 66 10 126 4 61 9 126 11 145 22 281 22 871 -1 1225 -5 81
-16 217 -20 255 -2 19 -7 67 -10 105 -3 39 -8 81 -10 95 -2 14 -6 48 -10 75
-11 96 -14 117 -19 143 -3 15 -8 52 -11 82 -3 30 -8 62 -10 70 -2 8 -6 33 -10
55 -14 100 -71 407 -90 485 -1 8 -15 67 -29 130 -42 183 -110 441 -162 610
-88 285 -151 463 -266 755 -69 175 -89 221 -150 354 -16 36 -46 101 -66 145
-88 196 -301 600 -413 783 -22 35 -39 66 -39 68 0 3 -20 36 -43 73 -24 37 -74
113 -110 170 -37 56 -67 107 -67 112 0 4 -4 10 -8 12 -5 2 -33 39 -62 83 -119
177 -287 404 -449 605 -79 99 -238 289 -251 300 -3 3 -27 30 -54 60 -148 165
-496 522 -590 605 -6 6 -58 53 -116 105 -145 132 -181 163 -306 266 -133 110
-157 129 -275 219 -213 164 -347 259 -559 399 -170 112 -162 107 -386 239 -82
48 -156 92 -164 97 -55 33 -233 128 -395 210 -165 84 -272 134 -490 231 -100
44 -512 207 -545 215 -8 2 -100 33 -205 68 -104 36 -246 81 -315 101 -223 65
-653 172 -761 189 -20 3 -42 8 -50 10 -8 3 -31 8 -53 11 -21 3 -41 7 -45 9 -3
2 -28 7 -54 10 -26 4 -69 11 -95 16 -26 4 -65 11 -87 14 -23 4 -52 8 -65 11
-14 3 -47 7 -75 10 -27 3 -57 8 -65 10 -8 2 -40 7 -70 10 -30 3 -66 8 -80 10
-58 9 -152 18 -285 30 -38 3 -97 8 -130 11 -156 15 -454 27 -728 28 -142 1
-259 0 -260 0z"/>
</g>
</svg>
